<svg width="74" height="75" viewBox="0 0 74 75" fill="none" xmlns="http://www.w3.org/2000/svg">
<g clip-path="url(#clip0_15_13)">
<mask id="mask0_15_13" style="mask-type:luminance" maskUnits="userSpaceOnUse" x="0" y="0" width="74" height="75">
<path d="M74 0.881104H0V74.8811H74V0.881104Z" fill="white"/>
</mask>
<g mask="url(#mask0_15_13)">
<path d="M32.4055 12.18C34.8565 9.44196 39.1435 9.44196 41.5945 12.18L43.7553 14.5935C45.0043 15.989 46.8201 16.741 48.6902 16.6376L51.9246 16.4588C55.5937 16.256 58.625 19.2872 58.4221 22.9565L58.2436 26.1909C58.14 28.061 58.892 29.8767 60.2875 31.1259L62.7011 33.2866C65.4391 35.7375 65.4391 40.0246 62.7011 42.4755L60.2875 44.6363C58.892 45.8854 58.14 47.7012 58.2436 49.5712L58.4221 52.8056C58.625 56.4748 55.5937 59.506 51.9246 59.3031L48.6902 59.1246C46.8201 59.021 45.0043 59.773 43.7553 61.1685L41.5945 63.5822C39.1435 66.3202 34.8565 66.3202 32.4055 63.5822L30.2448 61.1685C28.9956 59.773 27.1799 59.021 25.3099 59.1246L22.0754 59.3031C18.4062 59.506 15.3749 56.4748 15.5778 52.8056L15.7566 49.5712C15.86 47.7012 15.1079 45.8854 13.7125 44.6363L11.2989 42.4755C8.56091 40.0246 8.56091 35.7375 11.2989 33.2866L13.7125 31.1259C15.1079 29.8767 15.86 28.061 15.7566 26.1909L15.5778 22.9565C15.3749 19.2872 18.4062 16.256 22.0754 16.4588L25.3099 16.6376C27.1799 16.741 28.9956 15.989 30.2448 14.5935L32.4055 12.18Z" stroke="white" stroke-width="4"/>
<path d="M29.3225 30.1726H29.2917V30.2034H29.3225V30.1726Z" stroke="white" stroke-width="8" stroke-linejoin="round"/>
<path d="M44.7392 45.5894H44.7083V45.6202H44.7392V45.5894Z" stroke="white" stroke-width="8" stroke-linejoin="round"/>
<path d="M46.25 28.6311L27.75 47.1311" stroke="white" stroke-width="4" stroke-linecap="round" stroke-linejoin="round"/>
</g>
</g>
<defs>
<clipPath id="clip0_15_13">
<rect width="74" height="74" fill="white" transform="translate(0 0.881104)"/>
</clipPath>
</defs>
</svg>
