<svg width="42" height="42" viewBox="0 0 42 42" fill="none" xmlns="http://www.w3.org/2000/svg">
<g clip-path="url(#clip0_7_4)">
<path d="M21 31.4911C18.3503 31.4911 16.3249 30.1996 15.0525 29.0695C14.5127 28.5887 14.0176 28.0622 13.5728 27.4962C13.3726 27.246 13.1869 26.9851 13.0167 26.7146C12.7581 26.2787 12.6851 25.7611 12.8133 25.2732C12.9415 24.7852 13.2608 24.366 13.7024 24.1056C14.1439 23.8453 14.6725 23.7648 15.1742 23.8813C15.676 23.9978 16.1109 24.3021 16.3853 24.7287C16.7596 25.277 17.2 25.7794 17.697 26.2252C18.5916 27.0195 19.7145 27.6473 21 27.6473C22.2855 27.6473 23.4084 27.017 24.3004 26.2252C24.7974 25.7794 25.2378 25.277 25.6121 24.7287C25.8818 24.292 26.3179 23.9778 26.8247 23.8553C27.3315 23.7328 27.8673 23.8119 28.3144 24.0752C28.7614 24.3386 29.083 24.7646 29.2085 25.2596C29.334 25.7545 29.253 26.2779 28.9834 26.7146L28.4272 27.4962C28.0914 27.9241 27.5955 28.4955 26.9475 29.0695C25.6751 30.197 23.6498 31.4911 21 31.4911ZM13.1295 16.1161C13.1295 15.4365 13.4059 14.7847 13.8979 14.3041C14.3899 13.8236 15.0572 13.5536 15.753 13.5536H15.7714C16.4671 13.5536 17.1344 13.8236 17.6265 14.3041C18.1185 14.7847 18.3949 15.4365 18.3949 16.1161C18.3949 16.7957 18.1185 17.4475 17.6265 17.928C17.1344 18.4086 16.4671 18.6786 15.7714 18.6786H15.753C15.0572 18.6786 14.3899 18.4086 13.8979 17.928C13.4059 17.4475 13.1295 16.7957 13.1295 16.1161ZM26.247 13.5536C25.5512 13.5536 24.8839 13.8236 24.3919 14.3041C23.8999 14.7847 23.6235 15.4365 23.6235 16.1161C23.6235 16.7957 23.8999 17.4475 24.3919 17.928C24.8839 18.4086 25.5512 18.6786 26.247 18.6786H26.2654C26.9612 18.6786 27.6285 18.4086 28.1205 17.928C28.6125 17.4475 28.8889 16.7957 28.8889 16.1161C28.8889 15.4365 28.6125 14.7847 28.1205 14.3041C27.6285 13.8236 26.9612 13.5536 26.2654 13.5536H26.247Z" fill="white"/>
<path fill-rule="evenodd" clip-rule="evenodd" d="M21 0.741089C15.4336 0.741089 10.0952 2.9009 6.15917 6.7454C2.22314 10.5899 0.0119019 15.8042 0.0119019 21.2411C0.0119019 26.678 2.22314 31.8923 6.15917 35.7368C10.0952 39.5813 15.4336 41.7411 21 41.7411C26.5664 41.7411 31.9048 39.5813 35.8408 35.7368C39.7769 31.8923 41.9881 26.678 41.9881 21.2411C41.9881 15.8042 39.7769 10.5899 35.8408 6.7454C31.9048 2.9009 26.5664 0.741089 21 0.741089ZM3.94717 21.2411C3.94717 16.8236 5.7438 12.587 8.94183 9.46334C12.1399 6.33969 16.4773 4.58484 21 4.58484C25.5227 4.58484 29.8601 6.33969 33.0582 9.46334C36.2562 12.587 38.0528 16.8236 38.0528 21.2411C38.0528 25.6586 36.2562 29.8952 33.0582 33.0188C29.8601 36.1425 25.5227 37.8973 21 37.8973C16.4773 37.8973 12.1399 36.1425 8.94183 33.0188C5.7438 29.8952 3.94717 25.6586 3.94717 21.2411Z" fill="white"/>
</g>
<defs>
<clipPath id="clip0_7_4">
<rect width="41.9762" height="41" fill="white" transform="translate(0.0119019 0.741089)"/>
</clipPath>
</defs>
</svg>
