<svg width="42" height="43" viewBox="0 0 42 43" fill="none" xmlns="http://www.w3.org/2000/svg">
<g clip-path="url(#clip0_7_15)">
<path d="M25.5821 18.0054C24.822 16.7358 23.7484 15.8994 22.6067 15.4426C21.4585 14.9867 20.2653 14.8639 19.1116 14.8639C18.9236 14.8639 18.7347 14.8696 18.5514 14.8753C17.8041 14.8988 17.0843 14.963 16.4044 15.0281C15.5657 15.1037 14.7881 15.1792 14.1661 15.1792C13.5441 15.1792 12.7673 15.1037 11.9278 15.0281C11.082 14.9452 10.1633 14.8639 9.22067 14.8639C8.45023 14.8639 7.66795 14.9159 6.88559 15.0914C5.71997 15.3434 4.54971 15.8816 3.60711 16.8764C2.6589 17.8704 1.97976 19.2627 1.6259 21.0947C1.449 21.9889 1.37445 22.8959 1.37445 23.8029C1.37445 26.6046 2.09403 29.3835 2.94462 31.9048C3.79593 34.4196 4.79491 36.6954 5.38364 38.3859C5.80021 39.5913 6.37149 40.5269 7.06817 41.1885C7.76469 41.8485 8.60975 42.2411 9.47772 42.2411C10.2712 42.2411 11.0424 41.9021 11.6018 41.3283C12.1675 40.761 12.5443 39.9888 12.7158 39.0996C12.8705 38.2983 12.938 37.4562 13.007 36.6312C13.0585 36.0175 13.1037 35.4145 13.1728 34.8764C13.2695 34.0636 13.4465 33.3907 13.6353 33.0745C13.7265 32.9103 13.8011 32.8412 13.863 32.7998C13.9265 32.764 13.9836 32.7291 14.1661 32.7291C14.3264 32.7291 14.3946 32.7584 14.4517 32.7876C14.4977 32.8112 14.543 32.8526 14.6119 32.9405C14.7263 33.0802 14.8691 33.3843 14.9714 33.8182C15.1317 34.4555 15.2221 35.3382 15.2975 36.268C15.3713 37.2043 15.4395 38.1813 15.6165 39.0997C15.7879 39.9889 16.1647 40.7611 16.7305 41.3349C17.2898 41.9021 18.0611 42.2411 18.8545 42.2411C19.7226 42.2411 20.5732 41.8485 21.2642 41.1885C21.9616 40.5269 22.5321 39.5913 22.9487 38.3859C23.5374 36.6954 24.5363 34.4196 25.3877 31.9048C26.2383 29.3835 26.958 26.6046 26.958 23.8029V23.7737C26.958 22.878 26.8834 21.9775 26.7064 21.0947C26.4668 19.8707 26.0899 18.8474 25.5821 18.0054ZM24.5252 25.9203C24.2911 27.6637 23.8 29.4421 23.2287 31.1384C22.4179 33.537 21.4419 35.7656 20.8016 37.6025C20.4763 38.5323 20.0709 39.1354 19.7114 39.4743C19.3456 39.8133 19.0544 39.8954 18.8545 39.9011C18.6656 39.8954 18.5117 39.8377 18.3292 39.6613C18.1459 39.4801 17.9578 39.1525 17.8555 38.6437C17.7349 38.0284 17.6667 37.2571 17.604 36.4386C17.5525 35.829 17.5008 35.1982 17.4271 34.5724C17.3017 33.6361 17.1359 32.729 16.6788 31.9048C16.4448 31.4952 16.125 31.0969 15.6854 30.8165C15.245 30.5296 14.7087 30.3833 14.166 30.3898C13.6868 30.3898 13.2068 30.5003 12.7949 30.7287C12.4417 30.9278 12.1442 31.2025 11.9158 31.5009C11.5167 32.0333 11.3048 32.6242 11.1509 33.2329C10.9223 34.1448 10.8367 35.1275 10.7628 36.0753C10.6827 37.0229 10.6144 37.9358 10.4773 38.6437C10.3741 39.1524 10.1861 39.4801 10.0028 39.6613C9.81477 39.8377 9.6663 39.8954 9.47748 39.9011C9.27832 39.8954 8.98636 39.8134 8.62136 39.4743C8.26109 39.1354 7.85565 38.5323 7.53038 37.6025C6.89087 35.7656 5.91416 33.537 5.10321 31.1384C4.29234 28.7399 3.65283 26.1828 3.65836 23.803C3.65836 23.0301 3.72114 22.2758 3.86384 21.55C4.05827 20.5502 4.35496 19.8009 4.69225 19.2335C5.20555 18.3915 5.81174 17.9347 6.56552 17.6194C7.31857 17.3154 8.23258 17.204 9.22043 17.204C10.0258 17.204 10.8772 17.2747 11.7158 17.356C12.5553 17.4316 13.3781 17.5202 14.1659 17.5202C14.9537 17.5202 15.7766 17.4316 16.616 17.356C16.8738 17.3309 17.1293 17.3138 17.3873 17.2927L17.6864 18.0095L16.5264 18.7987L14.2598 20.3486L18.5427 21.8117L17.1154 26.1991L21.1127 24.4442L21.9689 29.1235L23.0028 27.4801L24.5388 25.0287L24.615 25.0546C24.5911 25.3423 24.5649 25.6302 24.5252 25.9203Z" fill="white"/>
<path d="M24.0016 15.1793L30.4418 7.44474L27.3332 6.76208L29.7754 0.241089L22.4473 9.03787L26.2224 9.26469L24.0016 15.1793Z" fill="white"/>
<path d="M40.6256 10.0295L30.0054 13.9536L33.1752 16.0669L28.3869 20.0787L37.7209 16.626L35.3502 14.456L40.6256 10.0295Z" fill="white"/>
</g>
<defs>
<clipPath id="clip0_7_15">
<rect width="41" height="42" fill="white" transform="translate(0.5 0.241089)"/>
</clipPath>
</defs>
</svg>
