<svg width="74" height="75" viewBox="0 0 74 75" fill="none" xmlns="http://www.w3.org/2000/svg">
<path d="M37 68.7145C54.0288 68.7145 67.8333 54.91 67.8333 37.8812C67.8333 20.8524 54.0288 7.04785 37 7.04785C19.9712 7.04785 6.16666 20.8524 6.16666 37.8812C6.16666 54.91 19.9712 68.7145 37 68.7145Z" stroke="white" stroke-width="4"/>
<path d="M46.25 31.5518C44.7083 29.556 42.55 27.0894 37 27.0894C31.45 27.0894 27.75 30.2156 27.75 31.5518C27.75 32.8879 27.9592 34.5748 30.8333 36.3394C33.1526 37.7632 39.0609 38.0164 41.625 39.4227C45.2602 41.4167 45.7866 43.4933 45.7866 44.2086C45.7866 46.1558 41.3706 48.6271 37 48.6727C32.486 48.7199 29.2917 46.206 27.75 44.2086" stroke="white" stroke-width="4" stroke-linecap="round" stroke-linejoin="round"/>
<path d="M37 22.4644V53.2977" stroke="white" stroke-width="4" stroke-linecap="round" stroke-linejoin="round"/>
</svg>
