<svg width="42" height="42" viewBox="0 0 42 42" fill="none" xmlns="http://www.w3.org/2000/svg">
<path d="M3.06262 14.7153C3.06261 12.6296 3.63417 10.5839 4.71519 8.80029C5.79622 7.01669 7.34536 5.56346 9.19432 4.59847C11.0433 3.63349 13.1213 3.19368 15.2027 3.3268C17.2841 3.45993 19.2892 4.16092 21.0001 5.35359" stroke="white" stroke-width="3" stroke-miterlimit="10"/>
<path d="M38.9375 14.7153C38.9269 12.1293 38.0397 9.6234 36.4207 7.60692C34.8017 5.59044 32.5468 4.18262 30.0242 3.61346C27.5017 3.0443 24.8607 3.34745 22.5327 4.47339C20.2047 5.59932 18.3274 7.48148 17.2075 9.81235" stroke="white" stroke-width="3" stroke-miterlimit="10"/>
<path d="M38.9375 14.7153V17.1411C38.9357 21.0279 38.1695 24.8763 36.6825 28.4674C35.198 32.0521 33.021 35.3088 30.2762 38.0511C29.7741 38.5559 29.1417 38.9114 28.4494 39.0778C27.7571 39.2443 27.0322 39.2152 26.3555 38.9937C25.6788 38.7723 25.0769 38.3672 24.6169 37.8238C24.1569 37.2803 23.8569 36.6197 23.7504 35.9157L22.7083 28.9969C22.7083 28.5439 22.5283 28.1093 22.2079 27.789C21.8876 27.4686 21.453 27.2886 21 27.2886C20.5469 27.2886 20.1124 27.4686 19.792 27.789C19.4716 28.1093 19.2916 28.5439 19.2916 28.9969L18.2325 35.9157C18.1259 36.6197 17.826 37.2803 17.366 37.8238C16.906 38.3672 16.3041 38.7723 15.6274 38.9937C14.9507 39.2152 14.2258 39.2443 13.5335 39.0778C12.8412 38.9114 12.2087 38.5559 11.7066 38.0511C8.96075 35.306 6.78372 32.0459 5.30037 28.4577C3.81701 24.8695 3.05651 21.0238 3.06247 17.1411V14.7153" stroke="white" stroke-width="3" stroke-miterlimit="10"/>
<path d="M21 14.7153H34.0517" stroke="white" stroke-width="3" stroke-miterlimit="10"/>
<path d="M27.5258 8.18945V21.2411" stroke="white" stroke-width="3" stroke-miterlimit="10"/>
</svg>
