<svg width="42" height="42" viewBox="0 0 42 42" fill="none" xmlns="http://www.w3.org/2000/svg">
<path fill-rule="evenodd" clip-rule="evenodd" d="M21 0.741089C15.4336 0.741089 10.0952 2.9009 6.15917 6.7454C2.22314 10.5899 0.0119019 15.8042 0.0119019 21.2411C0.0119019 26.678 2.22314 31.8923 6.15917 35.7368C10.0952 39.5813 15.4336 41.7411 21 41.7411C26.5664 41.7411 31.9048 39.5813 35.8408 35.7368C39.7769 31.8923 41.9881 26.678 41.9881 21.2411C41.9881 15.8042 39.7769 10.5899 35.8408 6.7454C31.9048 2.9009 26.5664 0.741089 21 0.741089ZM3.94717 21.2411C3.94717 16.8236 5.7438 12.587 8.94183 9.46334C12.1399 6.33969 16.4773 4.58484 21 4.58484C25.5227 4.58484 29.8601 6.33969 33.0582 9.46334C36.2562 12.587 38.0528 16.8236 38.0528 21.2411C38.0528 25.6586 36.2562 29.8952 33.0582 33.0188C29.8601 36.1425 25.5227 37.8973 21 37.8973C16.4773 37.8973 12.1399 36.1425 8.94183 33.0188C5.7438 29.8952 3.94717 25.6586 3.94717 21.2411Z" fill="white"/>
</svg>
