<svg width="74" height="75" viewBox="0 0 74 75" fill="none" xmlns="http://www.w3.org/2000/svg">
<path d="M37 3.72729C41.2692 3.72729 44.7273 8.40922 48.5127 10.0173C52.2981 11.6254 58.2181 10.7431 61.0927 13.7884C63.9673 16.8338 63.2415 22.4265 64.8639 26.3684C66.4862 30.3104 71.1538 33.6119 71.1538 37.8811C71.1538 42.1504 66.4719 45.6085 64.8639 49.3938C63.2558 53.1792 64.1381 59.0992 61.0927 61.9738C58.0473 64.8485 52.4546 64.1511 48.5127 65.745C44.5708 67.3388 41.2692 72.035 37 72.035C32.7308 72.035 29.2727 67.3531 25.4873 65.745C21.7019 64.1369 15.7819 65.0192 12.9073 61.9738C10.0327 58.9285 10.73 53.3358 9.13615 49.3938C7.54231 45.4519 2.84615 42.1504 2.84615 37.8811C2.84615 33.6119 7.52808 30.1538 9.13615 26.3684C10.7442 22.5831 9.86192 16.6631 12.9073 13.7884C15.9527 10.9138 21.5454 11.6111 25.4873 10.0173C29.4292 8.42345 32.7308 3.72729 37 3.72729ZM37 14.5142C32.3785 14.5142 27.8607 15.8847 24.018 18.4523C20.1754 21.0198 17.1804 24.6693 15.4118 28.939C13.6432 33.2088 13.1804 37.9071 14.0821 42.4398C14.9837 46.9725 17.2092 51.1361 20.4771 54.4041C23.745 57.672 27.9086 59.8975 32.4413 60.7991C36.9741 61.7007 41.6724 61.238 45.9421 59.4694C50.2119 57.7008 53.8613 54.7058 56.4289 50.8631C58.9965 47.0204 60.3669 42.5027 60.3669 37.8811C60.3482 31.6896 57.8803 25.7571 53.5022 21.379C49.1241 17.0009 43.1915 14.533 37 14.5142ZM47.8438 27.5354L50.135 29.6984C50.3693 30.0076 50.4961 30.3849 50.4961 30.7729C50.4961 31.1608 50.3693 31.5381 50.135 31.8473L35.6908 47.9423C35.4052 48.2661 35.052 48.5232 34.656 48.6953C34.2601 48.8674 33.8312 48.9504 33.3996 48.9385C32.9702 48.9361 32.5457 48.8466 32.1519 48.6753C31.7581 48.5041 31.4031 48.2547 31.1085 47.9423L23.2958 40.1581C23.1527 40.0354 23.0353 39.8856 22.9506 39.7173C22.8659 39.5489 22.8154 39.3654 22.8022 39.1774C22.7889 38.9894 22.8132 38.8007 22.8735 38.6221C22.9338 38.4436 23.029 38.2788 23.1535 38.1373L23.2958 37.9808L25.6154 35.8319C25.8947 35.5314 26.2809 35.3526 26.6908 35.334C27.1007 35.3153 27.5015 35.4584 27.8069 35.7323L27.9065 35.8319L33.4423 41.5242L45.6665 27.5781C45.9529 27.2897 46.3402 27.124 46.7466 27.1161C47.1529 27.1081 47.5464 27.2585 47.8438 27.5354Z" fill="white"/>
</svg>
